<svg xmlns="http://www.w3.org/2000/svg" xmlns:xlink="http://www.w3.org/1999/xlink" viewBox="0 0 408.88 273.99"><defs><style>.cls-1{opacity:0.2;}.cls-2,.cls-3{fill:#4aadff;}.cls-13,.cls-25,.cls-3,.cls-4,.cls-8{opacity:0.1;}.cls-13,.cls-3,.cls-4,.cls-8{isolation:isolate;}.cls-4,.cls-5{fill:#87f4ec;}.cls-6{fill:#3f3d56;}.cls-7{fill:#23adce;}.cls-9{fill:url(#linear-gradient);}.cls-10{fill:#a1616a;}.cls-11{fill:#46455b;}.cls-12,.cls-13{fill:#0a1f6b;}.cls-14{fill:#96d0ff;}.cls-15{fill:#008cff;}.cls-16{fill:url(#linear-gradient-2);}.cls-17{fill:#99d55c;}.cls-18{fill:#f6987e;}.cls-19{fill:#fc4a4a;}.cls-20{fill:#e2926f;}.cls-21{fill:#eeeff3;}.cls-22{fill:#8491ef;}.cls-23{fill:#6060d8;}.cls-24{fill:#f6d2ff;}.cls-26{fill:#fff;}.cls-27{fill:#845e4c;}</style><linearGradient id="linear-gradient" x1="-3254.76" y1="1668.87" x2="-3254.76" y2="1873.17" gradientTransform="matrix(1, 0, 0, -1, 3400.08, 1935.13)" gradientUnits="userSpaceOnUse"><stop offset="0" stop-color="gray" stop-opacity="0.25"/><stop offset="0.54" stop-color="gray" stop-opacity="0.12"/><stop offset="1" stop-color="gray" stop-opacity="0.1"/></linearGradient><linearGradient id="linear-gradient-2" x1="-3153.31" y1="1670.19" x2="-3153.31" y2="1874.3" xlink:href="#linear-gradient"/></defs><g id="Layer_2" data-name="Layer 2"><g id="Layer_1-2" data-name="Layer 1"><g class="cls-1"><path class="cls-2" d="M141.54,251.85a16.51,16.51,0,0,0,.82,2.46q7.88-3.09,15.93-5.93c0-.22-.09-.46-.15-.69a13.84,13.84,0,0,0-3.35-6.36c-2.14-2.27-4.91-3.37-7.6-2.7s-4.64,3-5.54,6A14.25,14.25,0,0,0,141.54,251.85Z"/><ellipse class="cls-2" cx="146.59" cy="236.17" rx="8.56" ry="11.45" transform="translate(-47.95 37.63) rotate(-12.59)"/><ellipse class="cls-2" cx="143.36" cy="222.56" rx="8.56" ry="11.45" transform="translate(-45.06 36.6) rotate(-12.59)"/><ellipse class="cls-2" cx="140.11" cy="208.96" rx="8.56" ry="11.45" transform="translate(-42.18 35.57) rotate(-12.59)"/><ellipse class="cls-2" cx="136.87" cy="195.35" rx="8.56" ry="11.45" transform="translate(-39.29 34.53) rotate(-12.59)"/><path class="cls-2" d="M145.77,94.46a42,42,0,0,0,2-5.43l-22.68,1.78,23.64-5.72a42.89,42.89,0,0,0-.42-17.94,42.47,42.47,0,0,0-6.51-14.52L114.12,77.36l23.95-29.27A40.23,40.23,0,0,0,98.81,36.37c-22,5.49-35.41,28.18-30.06,50.68a41.84,41.84,0,0,0,14.51,23,42.78,42.78,0,0,0-2.77,8.56l31.9,8-32.65-2.83a43,43,0,0,0,1,13.61,41.87,41.87,0,0,0,14.51,23.05,42.67,42.67,0,0,0-2.51,27.31c5.36,22.5,27.5,36.28,49.46,30.79s35.42-28.17,30.06-50.67a41.84,41.84,0,0,0-14.51-23.05,42.67,42.67,0,0,0,2.51-27.31A41.9,41.9,0,0,0,145.77,94.46Z"/><path class="cls-3" d="M80.76,137.4a41.84,41.84,0,0,0,14.51,23,42.63,42.63,0,0,0-2.51,27.32c5.36,22.49,27.5,36.27,49.46,30.79s35.42-28.18,30.06-50.68a41.93,41.93,0,0,0-14.51-23C161.45,136.57,79.67,132.84,80.76,137.4Z"/></g><g class="cls-1"><path class="cls-2" d="M243.46,247.7a17.3,17.3,0,0,0-.17,3q9.89.15,19.84.66c.05-.26.09-.52.13-.79a15.66,15.66,0,0,0-.93-8.21c-1.36-3.34-3.91-5.72-7.11-6.18s-6.3,1.11-8.55,3.91A15.76,15.76,0,0,0,243.46,247.7Z"/><ellipse class="cls-2" cx="255.65" cy="233.28" rx="13.1" ry="10.01" transform="translate(-11.63 453.14) rotate(-81.82)"/><ellipse class="cls-2" cx="257.93" cy="217.43" rx="13.1" ry="10.01" transform="translate(6 441.8) rotate(-81.82)"/><ellipse class="cls-2" cx="260.2" cy="201.59" rx="13.1" ry="10.01" transform="translate(23.64 430.46) rotate(-81.82)"/><ellipse class="cls-2" cx="262.48" cy="185.75" rx="13.1" ry="10.01" transform="translate(41.28 419.13) rotate(-81.82)"/><path class="cls-2" d="M315.13,82.63a47.26,47.26,0,0,0,4.46-4.92l-25.4-8L322.3,74a48,48,0,0,0,6.31-37.45L288,50.68l38.5-20.6a47.93,47.93,0,1,0-89,35.72,47.25,47.25,0,0,0,3,6.11,47.64,47.64,0,0,0-6.64,7.88l31.25,22.4L230.89,84.92a48,48,0,0,0,1.24,45.65,47.93,47.93,0,1,0,74.57,10.72A47.93,47.93,0,0,0,315.13,82.63Z"/><path class="cls-3" d="M226.19,99.78a47.7,47.7,0,0,0,5.94,30.79,47.93,47.93,0,1,0,74.57,10.72C314.22,134.13,227,94.46,226.19,99.78Z"/></g><ellipse class="cls-4" cx="204.44" cy="262.27" rx="204.44" ry="11.71"/><ellipse class="cls-5" cx="338.1" cy="255.71" rx="9.56" ry="1.84"/><ellipse class="cls-6" cx="337.94" cy="254.93" rx="1.11" ry="1.46"/><ellipse class="cls-6" cx="337.94" cy="253.15" rx="1.11" ry="1.46"/><ellipse class="cls-6" cx="337.94" cy="251.37" rx="1.11" ry="1.46"/><ellipse class="cls-6" cx="337.94" cy="249.59" rx="1.11" ry="1.46"/><ellipse class="cls-6" cx="337.94" cy="247.8" rx="1.11" ry="1.46"/><ellipse class="cls-6" cx="337.94" cy="246.03" rx="1.11" ry="1.46"/><ellipse class="cls-6" cx="337.94" cy="244.25" rx="1.11" ry="1.46"/><path class="cls-7" d="M342.11,232.06a5.91,5.91,0,0,0,.41-.61L339.6,231l3.16,0a5.36,5.36,0,0,0,.1-4.23L338.62,229l3.92-2.88a5.33,5.33,0,1,0-9.26,5.3,4.36,4.36,0,0,0,.45.67,5.45,5.45,0,0,0-.61,1l3.78,2-4-1.36a5.29,5.29,0,0,0,.88,5,5.33,5.33,0,1,0,8.38,0,5.33,5.33,0,0,0,0-6.59Z"/><path class="cls-8" d="M332.59,235.35a5.26,5.26,0,0,0,1.13,3.3,5.33,5.33,0,1,0,8.38,0C342.82,237.74,332.59,234.76,332.59,235.35Z"/><ellipse class="cls-5" cx="118.55" cy="269.9" rx="12.77" ry="2.46"/><ellipse class="cls-6" cx="118.33" cy="268.85" rx="1.49" ry="1.95"/><ellipse class="cls-6" cx="118.33" cy="266.47" rx="1.49" ry="1.95"/><ellipse class="cls-6" cx="118.33" cy="264.09" rx="1.49" ry="1.95"/><ellipse class="cls-6" cx="118.33" cy="261.72" rx="1.49" ry="1.95"/><ellipse class="cls-6" cx="118.33" cy="259.33" rx="1.49" ry="1.95"/><ellipse class="cls-6" cx="118.33" cy="256.95" rx="1.49" ry="1.95"/><ellipse class="cls-6" cx="118.33" cy="254.58" rx="1.49" ry="1.95"/><path class="cls-7" d="M123.9,238.29a7.22,7.22,0,0,0,.55-.81l-3.9-.65,4.22,0a7.12,7.12,0,0,0,.14-5.65l-5.67,2.94,5.23-3.82a7.13,7.13,0,0,0-12.31,7.18,6.12,6.12,0,0,0,.54.79,7,7,0,0,0-.81,1.3l5.07,2.65-5.41-1.82a7.15,7.15,0,0,0,1.13,6.69,7.13,7.13,0,1,0,11.21,0,7.13,7.13,0,0,0,0-8.81Z"/><path class="cls-8" d="M111.18,242.7a7,7,0,0,0,1.51,4.4,7.12,7.12,0,1,0,11.2,0C124.85,245.89,111.18,241.9,111.18,242.7Z"/><path class="cls-9" d="M185.8,161.72a99.38,99.38,0,0,1-2.22-15.22c-.11-3,.1-6.1-.29-9.11a43.64,43.64,0,0,0-.86-4.39l-1.34-5.83a9.67,9.67,0,0,0-.12-3.35,12.44,12.44,0,0,0-.54-1.7,26.57,26.57,0,0,0,3.07-5.67,5.71,5.71,0,0,0,.52-2.83c-.27-1.84-2.06-3.06-3.71-4a8.24,8.24,0,0,0-3.22-1.17,5.25,5.25,0,0,0-4.23,1.89,9.16,9.16,0,0,1,.27-4.47c-1-.44-2-.85-3-1.26a28.7,28.7,0,0,1-.15-3.93c0-1.58.05-3.17.14-4.75a14,14,0,0,0,9.21-13.09V82.4a11.39,11.39,0,0,0,1-8.72,15.33,15.33,0,0,0-7.49-8.81A25.67,25.67,0,0,0,161.3,62a16.34,16.34,0,0,0-4,.25,19.89,19.89,0,0,0-4.09,1.51,17.25,17.25,0,0,0-5.51,3.52c-2.59,2.77-3.18,6.84-2.89,10.58a47.22,47.22,0,0,0,3.91,14.24,17.54,17.54,0,0,0,2.35,4.34,2.49,2.49,0,0,0,3.31.36,33.59,33.59,0,0,0-.08,3.62,9.15,9.15,0,0,0-5.7,1.43,2.54,2.54,0,0,0-1.31,2.3,2.14,2.14,0,0,1,2.06,1.83,3.91,3.91,0,0,1-.71,2.27l-.51.93c-1.63,1.74-3.3,3.92-3.44,6.08a6.83,6.83,0,0,0-.79.11c-1.48.28-2.94.78-4.39,1.16L129,119.28l-2.58.71-4.16,1.1a29.17,29.17,0,0,0-7.69,2.81,9.64,9.64,0,0,0-4.81,6.24c-.23,1.31-.09,2.68-.38,4a1.13,1.13,0,0,1,0,.18,12.92,12.92,0,0,1-1,2.38c-2.34,4.95-4,10.34-3.7,15.79a45.52,45.52,0,0,0,2,9.82q1.44,4.94,2.84,9.88a52,52,0,0,0,2.34,6.91,26.68,26.68,0,0,0,7,9.37,12.05,12.05,0,0,0,2.8,1.88,10.07,10.07,0,0,0,4.91.8c.45,0,.9-.08,1.34-.15a24.39,24.39,0,0,0,9-3.84c1.16-.73,2.3-1.51,3.4-2.32a21.87,21.87,0,0,0,.76,3.75,6.75,6.75,0,0,1,.45,2.58c-.14,1.21-1,2.21-1.48,3.35-1,2.41,0,5.1.19,7.69a27.68,27.68,0,0,1-.91,7.21,75.14,75.14,0,0,0-1.39,12.06,39.3,39.3,0,0,1-.3,4.59c-.35,2.14-1.18,4.21-1.32,6.38-.22,3.38,1.24,6.69,1.1,10.07-.15,4-2.48,7.83-1.67,11.71a1.51,1.51,0,0,0,.82,1.18l-.21.2c-.67.62-1.32,1.76-.56,2.27a1.43,1.43,0,0,0,.57.19c1.17.25,2.35.47,3.54.68a10.69,10.69,0,0,0,.41,3.23,6.64,6.64,0,0,0,.65.43.87.87,0,0,0,.24,1.14,1.43,1.43,0,0,0,.57.19,123.1,123.1,0,0,0,29.61,2.46,10.69,10.69,0,0,0,5.14-1.11c1.52-.9,2.54-2.83,1.82-4.42-.64-1.41-2.31-2-3.81-2.49l-1.76-.54a3,3,0,0,0,.16-2.65c-.64-1.4-2.31-2-3.81-2.48l-4.05-1.26a3.87,3.87,0,0,1-1.48-.69,7.85,7.85,0,0,1-.8-.93,4.52,4.52,0,0,0-2.21-1.39,15.77,15.77,0,0,1,.06-2.57L161.89,232a29.75,29.75,0,0,0-.22-9.28,8.39,8.39,0,0,1-.47-3.72c.44-2,2.56-3.13,4-4.62,2.18-2.27,2.85-5.49,3.35-8.56a172.51,172.51,0,0,0,1.94-38.32,61.19,61.19,0,0,1,13.91-2.24,1.42,1.42,0,0,0,1.44-1.16A4.76,4.76,0,0,0,185.8,161.72Zm-22.62.67c0-.13.06-.26.08-.39l.31.4Z"/><path class="cls-10" d="M155.81,93c-.1,1.32-.56,2.58-.73,3.89s0,2.91-.12,4.37a5.53,5.53,0,0,1-1.62,3.93,76.64,76.64,0,0,1,18.86,4.08c-1.84-2.26-1.89-5.43-1.84-8.34.06-4.31.13-8.69,1.54-12.76A31.12,31.12,0,0,0,159.15,88c-.91.18-3.68.07-4.1.92C154.76,89.59,155.88,92.08,155.81,93Z"/><path class="cls-8" d="M155.81,93c-.1,1.32-.56,2.58-.73,3.89s0,2.91-.12,4.37a5.53,5.53,0,0,1-1.62,3.93,76.64,76.64,0,0,1,18.86,4.08c-1.84-2.26-1.89-5.43-1.84-8.34.06-4.31.13-8.69,1.54-12.76A31.12,31.12,0,0,0,159.15,88c-.91.18-3.68.07-4.1.92C154.76,89.59,155.88,92.08,155.81,93Z"/><path class="cls-11" d="M163.43,249.63a8.7,8.7,0,0,0,.75,1,3.92,3.92,0,0,0,1.44.69l4,1.26c1.47.47,3.11,1.07,3.73,2.48.7,1.58-.3,3.52-1.78,4.42a10.36,10.36,0,0,1-5,1.1,118.17,118.17,0,0,1-28.94-2.45,1.56,1.56,0,0,1-.56-.2c-.75-.51-.11-1.65.55-2.26,2.55-2.42,5.32-5,8.79-5.52,1.83-.3,3.66-.18,5.48-.61,1.3-.31,2.53-.85,3.83-1.17C158.07,247.72,161.7,247.51,163.43,249.63Z"/><path class="cls-8" d="M163.43,249.63a8.7,8.7,0,0,0,.75,1,3.92,3.92,0,0,0,1.44.69l4,1.26c1.47.47,3.11,1.07,3.73,2.48.7,1.58-.3,3.52-1.78,4.42a10.36,10.36,0,0,1-5,1.1,118.17,118.17,0,0,1-28.94-2.45,1.56,1.56,0,0,1-.56-.2c-.75-.51-.11-1.65.55-2.26,2.55-2.42,5.32-5,8.79-5.52,1.83-.3,3.66-.18,5.48-.61,1.3-.31,2.53-.85,3.83-1.17C158.07,247.72,161.7,247.51,163.43,249.63Z"/><path class="cls-12" d="M143.54,164.16a24.06,24.06,0,0,0-.34,16.06c-1.32-.14-1.89,1.64-1.85,3a22,22,0,0,0,.83,5.47,7,7,0,0,1,.45,2.58c-.14,1.22-1,2.22-1.45,3.35-1,2.41,0,5.09.19,7.67a28.44,28.44,0,0,1-.9,7.21,77.32,77.32,0,0,0-1.36,12,36.93,36.93,0,0,1-.29,4.58c-.34,2.15-1.14,4.22-1.29,6.38-.21,3.37,1.21,6.68,1.08,10.06-.15,4-2.43,7.82-1.63,11.71.11.55.42,1.2,1,1.21,5.7.07,11-1.52,16.66-.69.57-13,1.13-26.15,3.7-39,2.27-11.4,6.11-22.67,5.75-34.29-.2-6.65-1.78-13.17-2.74-19.75A26,26,0,0,0,143.54,164.16Z"/><path class="cls-13" d="M143.54,164.82a24.06,24.06,0,0,0-.34,16.06c-1.32-.14-1.89,1.64-1.85,3a22,22,0,0,0,.83,5.47,7,7,0,0,1,.45,2.57c-.14,1.22-1,2.22-1.45,3.36-1,2.4,0,5.09.19,7.67a28.41,28.41,0,0,1-.9,7.2,77.32,77.32,0,0,0-1.36,12,37,37,0,0,1-.29,4.59c-.34,2.14-1.14,4.21-1.29,6.38-.21,3.37,1.21,6.67,1.08,10.05-.15,4-2.43,7.82-1.63,11.72.11.54.42,1.19,1,1.2,5.7.07,11-1.51,16.66-.69.57-13,1.13-26.15,3.7-38.95,2.27-11.4,6.11-22.68,5.75-34.3-.2-6.65-1.78-13.17-2.74-19.75A26,26,0,0,0,143.54,164.82Z"/><path class="cls-11" d="M168.72,255.3a9.78,9.78,0,0,0,.75.95,3.92,3.92,0,0,0,1.44.69l4,1.26c1.47.47,3.11,1.07,3.73,2.48.7,1.58-.3,3.51-1.78,4.42a10.36,10.36,0,0,1-5,1.1,118.17,118.17,0,0,1-28.94-2.45,1.56,1.56,0,0,1-.56-.2c-.75-.51-.11-1.65.55-2.27,2.55-2.41,5.32-4.95,8.79-5.51,1.83-.3,3.66-.18,5.48-.61,1.3-.31,2.53-.86,3.83-1.18C163.36,253.39,167,253.18,168.72,255.3Z"/><path class="cls-12" d="M145.51,164.53a9.68,9.68,0,0,0-1.69,6.75,28,28,0,0,0,1.77,6.88c-1,1-.82,2.6-.69,4,.5,5.22-1.32,10.43-1.05,15.67.11,2.2.59,4.38.7,6.58a41.53,41.53,0,0,1-.47,7.21,431.09,431.09,0,0,0-3,46.13,15,15,0,0,0,.38,4.23,11.5,11.5,0,0,0,9.52,1.54,36.16,36.16,0,0,0,9.34-4.11,28.1,28.1,0,0,0,4.63-3,2.53,2.53,0,0,0,.93-1.28c.32-1.51-1.79-2.2-3-3.18-1.75-1.42-1.73-4.06-1.55-6.31l1.1-13.66a30.36,30.36,0,0,0-.21-9.28,8.63,8.63,0,0,1-.47-3.71c.43-2,2.5-3.12,3.91-4.62,2.14-2.26,2.79-5.48,3.28-8.54a176.47,176.47,0,0,0,1.47-43.92c-2.78,1-6.07.44-9,.66s-5.84,1.21-8.8,1.29C150.13,164,147,162.58,145.51,164.53Z"/><circle class="cls-10" cx="165.52" cy="83.15" r="13.98"/><path class="cls-14" d="M173.42,106.15a75.46,75.46,0,0,0-13.95-4.82c-3.38-.8-7.23-1.29-10.06.74a2.55,2.55,0,0,0-1.28,2.3,2.11,2.11,0,0,1,2,1.83,4,4,0,0,1-.7,2.27l-3.26,6a23.94,23.94,0,0,0-1.6,3.4,23.34,23.34,0,0,0-.94,6l-.38,5.48a65.44,65.44,0,0,0-.16,10.38c.23,2.61.78,5.22.41,7.81-.3,2.08-1.18,4-1.68,6.09-.93,3.85-.5,8.07-2.31,11.61a3.5,3.5,0,0,1,2.34-.21c5.48,1,9.78,5.33,15.09,7,1.34-2,3.16-3.4,4.66-5.22a10,10,0,0,0,2.14-4.74,17.78,17.78,0,0,1,2.78,4.44,2.93,2.93,0,0,0,.6,1.11c.72.7,1.89.43,2.85.14a58.38,58.38,0,0,1,14.42-2.45,1.41,1.41,0,0,0,1.42-1.16,4.72,4.72,0,0,0,0-2.33,102.85,102.85,0,0,1-2.17-15.2c-.1-3,.11-6.09-.28-9.1-.19-1.48-.51-2.94-.84-4.39l-2.7-12c-.15-.67-.87-1.1-1.17-1.72-1.24-2.51-3.61-4.32-4.84-6.84A9,9,0,0,1,173.42,106.15Z"/><path class="cls-15" d="M159.09,163.6a59.23,59.23,0,0,1-21,23.66,23.56,23.56,0,0,1-8.85,3.83,11.43,11.43,0,0,1-1.31.16,9.87,9.87,0,0,1-4.79-.82,11.89,11.89,0,0,1-2.73-1.89,26.59,26.59,0,0,1-6.85-9.34,52.71,52.71,0,0,1-2.28-6.91q-1.39-4.93-2.78-9.87a46.62,46.62,0,0,1-2-9.83c-.3-5.44,1.33-10.82,3.62-15.76a12.81,12.81,0,0,0,.94-2.38,1.16,1.16,0,0,1,0-.18c.27-1.3.13-2.66.38-4a9.58,9.58,0,0,1,4.7-6.23,28.1,28.1,0,0,1,7.52-2.8l4-1.1,2.52-.67,10.23-2.76c1.42-.38,2.85-.88,4.29-1.13,1.61-.3,1.6-.15,1.72,1.43a65,65,0,0,0,.76,8.47c.57,2.69,1.57,5.29,2.33,7.94,1.91,6.67,2.23,13.7,3.73,20.48.34,1.55.82,3.2,2.06,4.16,1.43,1.14,3.83,1.41,4.21,3.19A4.07,4.07,0,0,1,159.09,163.6Z"/><path class="cls-8" d="M129.29,191.08c-.43.07-.87.12-1.31.15a9.74,9.74,0,0,1-4.79-.8,11.89,11.89,0,0,1-2.73-1.89,26.59,26.59,0,0,1-6.85-9.34,52.71,52.71,0,0,1-2.28-6.91q-1.39-4.93-2.78-9.87a46.62,46.62,0,0,1-2-9.83c-.3-5.44,1.33-10.82,3.62-15.76a12.81,12.81,0,0,0,.94-2.38,1.16,1.16,0,0,1,0-.18c6.17,1.09,13.57,12.89,17.38,28.35C131.34,174.18,131.47,184.82,129.29,191.08Z"/><path class="cls-8" d="M140.44,150.4l-1,.18c-1.06-2.79-2.12-5.58-3.36-8.29-.65-1.42-1.35-2.82-1.89-4.28-2-5.62-1.7-12.28-5.48-16.91a6.22,6.22,0,0,0-.92-.93l2.52-.67a34.19,34.19,0,0,1,4.59,11.38,46.3,46.3,0,0,0,1.3,5.88,40.09,40.09,0,0,0,1.94,4.21A19.27,19.27,0,0,1,140.44,150.4Z"/><path class="cls-15" d="M150.49,107.83a12.49,12.49,0,0,1,9.94-3,19.12,19.12,0,0,1,5.85,2.27c3.61,1.92,7.18,4.13,9.79,7.29a29.36,29.36,0,0,1,3.86,6.49,15.85,15.85,0,0,1,1.13,3.18c.92,4.27-1.34,8.52-3.52,12.3l-4.2,7.28a62.91,62.91,0,0,1-6.37,9.65c-1.16,1.35-2.43,2.6-3.7,3.85l-5.56,5.49a.77.77,0,0,1-.37.25.82.82,0,0,1-.66-.26l-1.83-1.46a31.25,31.25,0,0,0,4.69-4,63,63,0,0,0,6.34-8.19l6.12-8.87c1.79-2.6,3.65-5.45,3.45-8.6a13.22,13.22,0,0,0-1.25-4.32q-1.57-3.69-3.43-7.28a37.07,37.07,0,0,0-4.88-7.59,15.9,15.9,0,0,0-7.41-5,6.09,6.09,0,0,0-2.68-.26c-2,.33-3.4,2-4.66,3.62l-3.83,4.92c-.88,1.11-1.68,2.4-1.73.29C145.49,112.88,148.54,109.77,150.49,107.83Z"/><path class="cls-10" d="M151.67,141c.76,2.91,1.87,6.21,4.67,7.31a6.44,6.44,0,0,0,6-1.13,17.06,17.06,0,0,0,4-4.91,46.68,46.68,0,0,1,3.12-4.74c2.24-2.81,5.29-5,6.8-8.32.45-1,.76-2,1.27-3a18.15,18.15,0,0,1,1.83-2.45,26.42,26.42,0,0,0,4.12-7.15,5.82,5.82,0,0,0,.51-2.83c-.27-1.84-2-3-3.63-4a7.94,7.94,0,0,0-3.14-1.17,5.11,5.11,0,0,0-4.27,2,8.22,8.22,0,0,0-1.55,4.6c-.12,2,.28,4.11-.38,6a9.47,9.47,0,0,1-1.43,2.46,28.86,28.86,0,0,1-7.75,7.15,13.48,13.48,0,0,0-.91-4.16c-.29-.74-5.92,0-6.66.12-1.45.21-4.26.37-5.17,1.76s.22,3.7.59,5.1Z"/><path class="cls-14" d="M151.54,109.21a19.22,19.22,0,0,0-2.33,2.27,12.94,12.94,0,0,0-2.71,7.27,31.33,31.33,0,0,0,.6,7.84c.4,2.32.89,4.63,1.44,6.92a4.78,4.78,0,0,1,3.18-3.78,10,10,0,0,1,5.13-.3,24.51,24.51,0,0,1,6.44,1.86l.8-11.18a19.07,19.07,0,0,0,0-4.53,9.93,9.93,0,0,0-4.66-6.78C156.37,107,154.26,106.84,151.54,109.21Z"/><path class="cls-16" d="M294.3,163.59a26.28,26.28,0,0,0-2.61-8.71,31.7,31.7,0,0,1-2.38-5c-.42-1.44-.51-3-.85-4.44s-.94-2.87-1.42-4.31c-3.42-10.2-.85-21.36-2-32.06-.41-3.94-1.62-8.27-5-10.33-2-1.22-4.47-1.41-6.86-1.51l-1.1,0-1.75-.08a28.94,28.94,0,0,0-7.56.31c-3,.66-6.6,2.79-7.55,5.88-.53-.27-1.05-.51-1.54-.73a26.81,26.81,0,0,0-6.08-1.89,23.36,23.36,0,0,0,5.17-2c3.78-2.2,4.65-8.62,5.42-12.92A27.68,27.68,0,0,0,257,72.8a22,22,0,0,0-1.72-4.28A14.93,14.93,0,0,0,235,62.7q-.48.27-.93.57a45.31,45.31,0,0,0-9.49,8.91c-.38.45-2,2-1.44,2.69.3.38,1.27.08,2.29-.38a13.89,13.89,0,0,0-1.19,5.64,14.05,14.05,0,0,0,6.89,12.06l.38,3.47v0c0,1.16.06,2.32.08,3.48,0,.81,0,1.64,0,2.47a17,17,0,0,1-5.64,4.2A9.09,9.09,0,0,0,231,105a7.43,7.43,0,0,1-1.32,2.54c.45-.16.91-.3,1.36-.45a9,9,0,0,0-.63,1.19,8.81,8.81,0,0,0-.61,2,28.22,28.22,0,0,0-2.49,4.46h0c-.32.7-.6,1.42-.86,2.15v0c-.25.72-.47,1.46-.67,2.21h0c-.09.35-.17.71-.25,1.07v.08c-.15.73-.27,1.46-.38,2.21v.15c0,.34-.07.69-.1,1v0c0,.38-.05.74-.07,1.11v1.3c0,.71,0,1.42.12,2.14a1.1,1.1,0,0,0,0,.26c0,.29.07.58.11.88a.44.44,0,0,0,0,.2c0,.35.1.7.17,1.05a1.06,1.06,0,0,0,.05.23c0,.28.11.55.17.83l.07.29c.08.35.17.69.27,1s.11.38.17.58a14.85,14.85,0,0,1,.38,2.18l-2.07.07q-6.63.19-13.26.6c-.55-2.12-2.43-3.35-4.8-3.64a8.72,8.72,0,0,0-1.14-.07h0a6,6,0,0,0,1.08-1.18,5,5,0,0,0,.87-1.89,5.32,5.32,0,0,0-1.57,1.38c-.14.19-.26.37-.38.55v-1.14a.17.17,0,0,0-.17-.18h-.39a.19.19,0,0,0-.18.18h0v2.31h-.2l-.73.1c-2.57.48-4.46,2.13-4.46,4.91a6,6,0,0,0,2.13,4.61,13,13,0,0,0,.59,2.54,3.38,3.38,0,0,0,1.36,2.12,3.07,3.07,0,0,0,1.49.28c4.2,0,8.18-1.94,12.36-2.27,2.59-.21,5.18.19,7.78.11.37,0,.75,0,1.13-.07-3.55,17.56-7.83,35.33-5.59,53.06a5.07,5.07,0,0,0,1.25,3.26c1.17,1.07,3,.89,4.54.76a37.73,37.73,0,0,1,12.83,1,3.92,3.92,0,0,0,1.8.07l.38-.11.11-.05.23-.09.1-.06.19-.11.09-.06.19-.16,0,0a2.09,2.09,0,0,0,.2-.22l0-.07a.83.83,0,0,0,.13-.18.41.41,0,0,1,.05-.09s.06-.11.09-.17a.69.69,0,0,0,0-.1s0-.12.07-.19,0-.06,0-.09a1.23,1.23,0,0,0,.07-.29v-.06a2,2,0,0,1,0-.24.45.45,0,0,0,0-.12v-1h0c0-.34,0-.68-.07-1a8,8,0,0,0,.82.17h0a4.21,4.21,0,0,0,.79.06h0a1.67,1.67,0,0,0,.38,0h0l.32-.07h.05a1.45,1.45,0,0,0,.29-.11l0,0a1.14,1.14,0,0,0,.23-.15l0,0a2,2,0,0,0,.19-.22l0-.06a1.08,1.08,0,0,0,.13-.29c.22-.73-.27-1.55.52-2.22a29.89,29.89,0,0,1,1.63,7.35,4.79,4.79,0,0,0,.54,2.65,12.27,12.27,0,0,0,1.13,1.15c1.16,1.25,1.18,3.14,1.11,4.83,0,.69-.08,1.37-.13,2a101.55,101.55,0,0,1-5.51,26.76,14.89,14.89,0,0,1-1.16,2.65,13,13,0,0,1-2.84,3.12,34.86,34.86,0,0,1-5,3.58,16.4,16.4,0,0,0-2.57,1.71l-.09-.26c0-.18-.09-.38-.26-.44a.5.5,0,0,0-.38.06c-1.77.78-3.55,1.55-5.25,2.46a6.1,6.1,0,0,0-2.21,1.72,2.31,2.31,0,0,0-.15,2.64,3.4,3.4,0,0,0,2.2,1c1.06.18,2.11.32,3.16.42a4.67,4.67,0,0,0-1.39,1.23,2.33,2.33,0,0,0-.14,2.65,3.38,3.38,0,0,0,2.2,1c6.7,1.18,13.57.38,20.37.18a22.64,22.64,0,0,0,6.57-.81,3.31,3.31,0,0,0,1.13-.59c.95-.84.86-2.32.69-3.57l-.69-5.11a1.59,1.59,0,0,0-.3.06,75.83,75.83,0,0,1,3.1-14.13c2.31-7.16,5.74-14.22,5.69-21.71v-.55c-.06-2.34-.48-4.66-.75-7a100.54,100.54,0,0,1-.35-11.77,24.44,24.44,0,0,1,.32-4.6.76.76,0,0,1,0-.16l6.28-.16a4.52,4.52,0,0,0,2-.38,1.33,1.33,0,0,0,.74-1.62,5.35,5.35,0,0,0,7-3.25,4.29,4.29,0,0,0,.13-.6v0a5.62,5.62,0,0,0,.06-.56v-.1h0A10.52,10.52,0,0,0,283,184a63.65,63.65,0,0,0-5.24-10.31c-1-1.73-1.95-3.49-2.89-5.26l.82,1.06a3.62,3.62,0,0,0,1.11,1.06c1.53.79,3.13-.8,4.69-1.53,2.07-1,4.49-.4,6.77-.24s5-.43,5.85-2.54A5.75,5.75,0,0,0,294.3,163.59ZM255,106.79c0,.81.05,1.63.11,2.46a22.62,22.62,0,0,0-2.64-3.52Z"/><path class="cls-17" d="M203.36,127.53a6.69,6.69,0,0,1,2-1.79,6.79,6.79,0,0,1-1.12,2.48c-.86,1.17-1.77,2-2,1.78S202.49,128.7,203.36,127.53Z"/><path class="cls-8" d="M203.47,127.62a5,5,0,0,1,1.49-1.34,5,5,0,0,1-.83,1.84c-.64.87-1.32,1.48-1.49,1.33S202.83,128.49,203.47,127.62Z"/><path class="cls-18" d="M202.16,126.54h.49a.24.24,0,0,1,.24.24v5.61H202v-5.61A.25.25,0,0,1,202.16,126.54Z"/><path class="cls-19" d="M210.8,136.36a7.94,7.94,0,0,1-15.87,0c0-3.63,2.45-5.78,5.78-6.41a11.13,11.13,0,0,1,2.16-.2,12.25,12.25,0,0,1,1.48.09C208,130.3,210.8,132.49,210.8,136.36Z"/><path class="cls-8" d="M204.35,129.84c-.14.27-.92.5-1.86.5a3.43,3.43,0,0,1-1.78-.37,11.13,11.13,0,0,1,2.16-.2A12.22,12.22,0,0,1,204.35,129.84Z"/><path class="cls-8" d="M204.19,144.1a7.93,7.93,0,0,1-7.93-7.93c0-3.57,2.35-5.7,5.59-6.37a11.12,11.12,0,0,0-1.14.15c-3.33.63-5.78,2.78-5.78,6.41a7.94,7.94,0,0,0,7.94,7.93,8.3,8.3,0,0,0,1.78-.2Z"/><path class="cls-20" d="M232.86,256.36a4.35,4.35,0,0,0,3.25.65l5.16-.38c4.1-.3,8.35-.64,12-2.59a3,3,0,0,0,1-.76,3.21,3.21,0,0,0,.44-1.63A75.2,75.2,0,0,1,258,235.18c2.26-7.12,5.66-14.15,5.62-21.6V213c-.07-2.34-.48-4.65-.73-7a101.73,101.73,0,0,1-.35-11.71,25.94,25.94,0,0,1,.32-4.58c.24-1.23,1.13-2.46.58-3.54-1.06-2.1-4.91-2.87-7-3a28.65,28.65,0,0,0-8.23,1.36,5.21,5.21,0,0,0-2.29,1,4.38,4.38,0,0,0-1.1,3.14c-.15,5,2.76,9.74,3,14.77a4.87,4.87,0,0,0,.53,2.65,12.27,12.27,0,0,0,1.13,1.15c1.14,1.24,1.17,3.12,1.09,4.8q0,1-.12,2A101.41,101.41,0,0,1,245,240.87a15,15,0,0,1-1.13,2.64,13,13,0,0,1-2.81,3.11,35.83,35.83,0,0,1-5,3.57,10.13,10.13,0,0,0-3.24,2.46A2.88,2.88,0,0,0,232.86,256.36Z"/><path class="cls-8" d="M232.81,256.36a4.36,4.36,0,0,0,3.25.65l5.16-.38c4.11-.3,8.35-.64,12-2.59a3,3,0,0,0,1-.76,3.31,3.31,0,0,0,.43-1.63,75.2,75.2,0,0,1,3.32-16.47c2.27-7.12,5.67-14.15,5.62-21.6V213c-.06-2.34-.47-4.65-.73-7a101.73,101.73,0,0,1-.35-11.71,25.94,25.94,0,0,1,.32-4.58c.24-1.23,1.14-2.46.59-3.54-1.06-2.1-4.92-2.87-7-3a28.58,28.58,0,0,0-8.22,1.36,5.25,5.25,0,0,0-2.3,1,4.38,4.38,0,0,0-1.1,3.14c-.14,5,2.76,9.74,3,14.77a4.87,4.87,0,0,0,.53,2.65,11.25,11.25,0,0,0,1.14,1.15c1.13,1.24,1.16,3.12,1.08,4.8,0,.68-.07,1.36-.11,2A101.42,101.42,0,0,1,245,240.87a15,15,0,0,1-1.13,2.64,13.17,13.17,0,0,1-2.8,3.11,36.53,36.53,0,0,1-5,3.57,10.09,10.09,0,0,0-3.23,2.46A2.87,2.87,0,0,0,232.81,256.36Z"/><path class="cls-21" d="M232.86,256.36a4.35,4.35,0,0,0,3.25.65l5.16-.38c4.1-.3,8.35-.64,12-2.59a3,3,0,0,0,1-.76,3.21,3.21,0,0,0,.44-1.63A75.2,75.2,0,0,1,258,235.18c2.26-7.12,5.66-14.15,5.62-21.6a109.12,109.12,0,0,1-13.16.65A101.33,101.33,0,0,1,245,240.85a15.08,15.08,0,0,1-1.13,2.65,12.77,12.77,0,0,1-2.81,3.1,35,35,0,0,1-5,3.57,10.27,10.27,0,0,0-3.24,2.46A2.91,2.91,0,0,0,232.86,256.36Z"/><path class="cls-8" d="M232.86,256.36a4.35,4.35,0,0,0,3.25.65l5.16-.38c4.1-.3,8.35-.64,12-2.59a3,3,0,0,0,1-.76,3.21,3.21,0,0,0,.44-1.63A75.2,75.2,0,0,1,258,235.18c2.26-7.12,5.66-14.15,5.62-21.6a109.12,109.12,0,0,1-13.16.65A101.33,101.33,0,0,1,245,240.85a15.08,15.08,0,0,1-1.13,2.65,12.77,12.77,0,0,1-2.81,3.1,35,35,0,0,1-5,3.57,10.27,10.27,0,0,0-3.24,2.46A2.91,2.91,0,0,0,232.86,256.36Z"/><path class="cls-22" d="M244.27,254.76a18.76,18.76,0,0,0,3.56-1.7l5.7-3.21a4.63,4.63,0,0,1,1.69-.68l.68,5.08c.17,1.25.26,2.71-.68,3.55a3.54,3.54,0,0,1-1.14.59,21.69,21.69,0,0,1-6.48.79c-6.72.22-13.51,1-20.13-.17a3.39,3.39,0,0,1-2.17-1,2.29,2.29,0,0,1,.14-2.62,6,6,0,0,1,2.19-1.71c1.68-.9,3.43-1.68,5.18-2.45a.51.51,0,0,1,.36-.06c.17.06.22.26.27.44a4.51,4.51,0,0,0,2.44,2.8S241.75,255.56,244.27,254.76Z"/><path class="cls-8" d="M244.27,255.81a20.06,20.06,0,0,0,3.56-1.7l5.7-3.21a4.64,4.64,0,0,1,1.69-.69l.68,5.08c.17,1.25.26,2.72-.68,3.55a3.35,3.35,0,0,1-1.14.59,21.7,21.7,0,0,1-6.48.8c-6.72.21-13.51,1-20.13-.18a3.34,3.34,0,0,1-2.17-1,2.3,2.3,0,0,1,.14-2.62,6,6,0,0,1,2.19-1.7c1.68-.91,3.43-1.68,5.18-2.45a.46.46,0,0,1,.36-.06c.17.05.22.26.27.43a4.55,4.55,0,0,0,2.44,2.81S241.75,256.61,244.27,255.81Z"/><path class="cls-20" d="M236.64,261.65a4.33,4.33,0,0,0,3.24.65l5.17-.38c4.1-.3,8.35-.64,12-2.59a3,3,0,0,0,1-.76,3.21,3.21,0,0,0,.44-1.63,75.89,75.89,0,0,1,3.31-16.47c2.27-7.12,5.67-14.14,5.63-21.6v-.54c-.07-2.34-.48-4.65-.73-7a101.73,101.73,0,0,1-.35-11.71,25,25,0,0,1,.32-4.58c.24-1.23,1.13-2.46.58-3.54-1.06-2.1-4.91-2.87-7-2.94a28.3,28.3,0,0,0-8.23,1.35,5.21,5.21,0,0,0-2.29,1,4.34,4.34,0,0,0-1.1,3.14c-.15,5,2.76,9.74,3,14.77a4.87,4.87,0,0,0,.53,2.65,11.16,11.16,0,0,0,1.13,1.15c1.14,1.24,1.17,3.12,1.09,4.8q0,1-.12,2a101.41,101.41,0,0,1-5.45,26.63,15,15,0,0,1-1.13,2.64,13,13,0,0,1-2.81,3.11,35.83,35.83,0,0,1-5,3.57,10.13,10.13,0,0,0-3.24,2.46A2.88,2.88,0,0,0,236.64,261.65Z"/><path class="cls-21" d="M236.64,261.65a4.33,4.33,0,0,0,3.24.65l5.17-.38c4.1-.3,8.35-.64,12-2.59a3,3,0,0,0,1-.76,3.21,3.21,0,0,0,.44-1.63,75.89,75.89,0,0,1,3.31-16.47c2.27-7.12,5.67-14.14,5.63-21.6a109.12,109.12,0,0,1-13.16.65,101.33,101.33,0,0,1-5.45,26.62,14.77,14.77,0,0,1-1.13,2.65,12.77,12.77,0,0,1-2.81,3.1,35,35,0,0,1-5,3.57,10.16,10.16,0,0,0-3.24,2.47A2.9,2.9,0,0,0,236.64,261.65Z"/><path class="cls-22" d="M248.05,260.05a19.05,19.05,0,0,0,3.56-1.7l5.69-3.21a4.77,4.77,0,0,1,1.69-.68l.68,5.08c.17,1.25.27,2.71-.68,3.55a3.22,3.22,0,0,1-1.13.59,21.69,21.69,0,0,1-6.48.79c-6.72.22-13.51,1-20.13-.17a3.39,3.39,0,0,1-2.17-1,2.29,2.29,0,0,1,.14-2.62A6,6,0,0,1,231.4,259c1.69-.9,3.44-1.67,5.19-2.45a.5.5,0,0,1,.36-.06c.17.06.22.26.27.44a4.51,4.51,0,0,0,2.44,2.8S245.53,260.85,248.05,260.05Z"/><path class="cls-20" d="M229.31,108.36c1.84-2.27,1.89-5.44,1.84-8.35,0-1.13,0-2.3-.07-3.45v0a39.27,39.27,0,0,0-.67-6.31h0a23.34,23.34,0,0,0-.79-3q.38-.09.75-.15a30.68,30.68,0,0,1,12,0,23,23,0,0,1,3.4.44,1.17,1.17,0,0,1,.69.48c.19.4-.21,1.57-.5,2.61h0a5.53,5.53,0,0,0-.26,1.45,10.43,10.43,0,0,0,.21,1.38c.18.84.41,1.67.52,2.51.2,1.45,0,2.92.12,4.37a5.53,5.53,0,0,0,1.62,3.94A76.15,76.15,0,0,0,229.31,108.36Z"/><path class="cls-8" d="M247.42,96.05l-1.51.14a76.53,76.53,0,0,0-14.83,3.1v0L230.41,93h0V91.8c0-.64,0-1.3,0-2a31,31,0,0,1,12,0,24.7,24.7,0,0,1,3.41.45c0,.61,0,1.23,0,1.84a7.52,7.52,0,0,0,.17,1.25h0A4.78,4.78,0,0,0,247.42,96.05Z"/><path class="cls-23" d="M225.6,133.79a27.39,27.39,0,0,1,5.72-25.16,16.31,16.31,0,0,1,4.37-4.06c2.06-1.09,4.5-1.13,6.83-1.15a15.2,15.2,0,0,1,6.08.82c2.56,1.09,4.32,3.46,5.81,5.81a18.63,18.63,0,0,1,3.27,8.19c.12,1.76-.19,3.54.07,5.29.34,2.22,1.57,4.21,2.08,6.39.28,1.18.33,2.4.51,3.61a35.27,35.27,0,0,0,1.16,4.85,174.6,174.6,0,0,0,15.33,35.79A65.25,65.25,0,0,1,282,184.42a8.52,8.52,0,0,1,.52,5.09,5.27,5.27,0,0,1-6.95,3.24,1.33,1.33,0,0,1-.73,1.61,4.3,4.3,0,0,1-2,.37l-23.34.62a8.67,8.67,0,0,0-1.82.25c-2.74.7-1.71,1.89-2,2.88-.35,1.21-2.09,1.11-3.3.75.19,1.77.23,3.93-2,4.44a3.83,3.83,0,0,1-1.78-.06,37.37,37.37,0,0,0-12.68-1c-1.56.14-3.34.32-4.49-.76a5.09,5.09,0,0,1-1.24-3.23c-2.33-18.52,2.46-37.06,6.05-55.36a22,22,0,0,0-.42-8.88Z"/><path class="cls-24" d="M256.59,121a22.68,22.68,0,0,1,1.42,4.79c.15,1.33,0,2.68.05,4a20.25,20.25,0,0,0,.91,4.36,69.82,69.82,0,0,0,2.68,8.1c.51,1.19,1.1,2.5.69,3.73s-1.68,2-2,3.21a3.79,3.79,0,0,0,1.34,3.58c1,.94,2.17,1.61,3.06,2.61a18,18,0,0,1,2.2,3.78,34.25,34.25,0,0,0,3.33,4.86L274.8,170a3.56,3.56,0,0,0,1.09,1.06c1.52.78,3.1-.8,4.64-1.51,2-1,4.43-.41,6.68-.24s5-.43,5.78-2.53a5.54,5.54,0,0,0,.16-2.65,26,26,0,0,0-2.58-8.66,31.76,31.76,0,0,1-2.34-5c-.43-1.44-.51-2.95-.84-4.41s-.93-2.86-1.41-4.29c-3.38-10.15-.84-21.26-1.93-31.9-.41-3.93-1.6-8.23-5-10.28-2-1.21-4.42-1.4-6.8-1.51l-1.08,0-1.74-.08a28.29,28.29,0,0,0-7.47.31c-3.44.76-7.57,3.43-7.71,7.27A44.78,44.78,0,0,0,256.59,121Z"/><path class="cls-8" d="M269.47,97.9a42.42,42.42,0,0,1,.69,7.79c.07,7.46.88,14.89,1.69,22.3l.53,4.91a5.21,5.21,0,0,0,.75,2.59,1.79,1.79,0,0,0,2.39.55,18.38,18.38,0,0,0,.27-5.34l-.57-11.41c-.18-3.71-.37-7.41-.82-11.09a75.58,75.58,0,0,0-1.56-8.47A9.79,9.79,0,0,0,272.3,98L271.22,98Z"/><path class="cls-24" d="M244.78,101.1a14.39,14.39,0,0,0-6.94.3,14.06,14.06,0,0,0-5.29,4A14.42,14.42,0,0,0,230,109.1c-1.28,3-.78,6.38,0,9.52,2.15,8.64,6.4,17,13.23,22.67a49.09,49.09,0,0,0,6.62,4.54,44.75,44.75,0,0,0,9.49,4.42,5.81,5.81,0,0,0,2.88.33,2.28,2.28,0,0,0,1.89-2c-5.48-3.08-10.39-7.06-15.27-11a31.79,31.79,0,0,1-3.75-3.4c-1.73-1.95-3-4.3-4.63-6.29-1.51-1.79-3.4-3.3-4.53-5.34a14.27,14.27,0,0,1-1.41-4.45,16.87,16.87,0,0,1,.59-9.48c1.25-3,4.13-5.39,7.34-5.34a13.08,13.08,0,0,1,4.74,1.32l9.56,4c-.12-.06.55-1.72.52-2-.09-.72-.22-.73-.76-1.28a12.51,12.51,0,0,0-3.5-2.09A29.77,29.77,0,0,0,244.78,101.1Z"/><g class="cls-25"><path d="M241.47,200.65a3.83,3.83,0,0,1-1.78-.06,37,37,0,0,0-12.67-1c-1.56.14-3.34.31-4.49-.76a5.14,5.14,0,0,1-1.25-3.24c-2.32-18.51,2.46-37.06,6.05-55.35a22,22,0,0,0-.42-8.88l-.17-.58a26.89,26.89,0,0,1,.24-15.24,27,27,0,0,0-1.38,18.27l.17.59a21.94,21.94,0,0,1,.42,8.87c-3.58,18.3-8.36,36.85-6.05,55.36a5.14,5.14,0,0,0,1.25,3.24c1.13,1.06,2.93.88,4.49.75a37.29,37.29,0,0,1,12.67,1,3.83,3.83,0,0,0,1.78.06c1.86-.42,2.18-1.93,2.13-3.43A3.08,3.08,0,0,1,241.47,200.65Z"/><path d="M276.72,189.72a1.32,1.32,0,0,1-.73,1.61,4.18,4.18,0,0,1-2,.38l-23.34.62a8.67,8.67,0,0,0-1.82.25c-2.74.7-1.71,1.89-2,2.88-.36,1.2-2.1,1.11-3.31.75a5.76,5.76,0,0,1-.31,3.21c1.06.15,2.2,0,2.48-.94s-.73-2.18,2-2.88a8.49,8.49,0,0,1,1.82-.25l23.32-.62a4.27,4.27,0,0,0,2-.37,1.33,1.33,0,0,0,.73-1.61,5.28,5.28,0,0,0,7-3.24,5.67,5.67,0,0,0,.19-1.3A5.23,5.23,0,0,1,276.72,189.72Z"/></g><path class="cls-20" d="M250.05,112c0,5.9.4,6.67.68,11.9,1.24,3.59,2.33,7.37,1.92,11.15s-2.65,7.59-6.28,8.78a16.5,16.5,0,0,1-4.81.55,102.45,102.45,0,0,0-11.61.94,51.54,51.54,0,0,1-5.4.6c-2.57.08-5.13-.32-7.68-.11-4.14.34-8.06,2.27-12.21,2.27a3.13,3.13,0,0,1-1.48-.28,3.39,3.39,0,0,1-1.35-2.1c-.57-1.85-1-4-.05-5.63,1.21-2.05,3.95-2.46,6.32-2.65q8-.56,16.07-.79c4.58-.13,9.54-.3,13.09-3.2a1.88,1.88,0,0,0,.57-.65,2.08,2.08,0,0,0-.05-1.35A59,59,0,0,1,236,114.55a2.51,2.51,0,0,1,.38-1.44,2.37,2.37,0,0,1,1.2-.7,17.59,17.59,0,0,1,9.78-.27"/><path class="cls-26" d="M235.9,114.55a2.82,2.82,0,0,0-1.37,1c.15-1.58-.05-3.17,0-4.76a6.06,6.06,0,0,1,6.79-6.66,11.48,11.48,0,0,1,8.13,2.78,8.27,8.27,0,0,1,2.55,4.91c.07.52.3,2.46-.24,2.79s-2.27-.72-2.85-.88A19.05,19.05,0,0,0,235.9,114.55Z"/><circle class="cls-3" cx="178.74" cy="22.69" r="2.65"/><circle class="cls-3" cx="146.25" cy="25.33" r="2.65"/><circle class="cls-3" cx="65" cy="145.88" r="6.8"/><circle class="cls-3" cx="338.97" cy="37.8" r="2.65"/><circle class="cls-3" cx="341.99" cy="73.7" r="8.69"/><circle class="cls-3" cx="355.98" cy="49.14" r="2.65"/><circle class="cls-3" cx="332.55" cy="97.51" r="2.65"/><circle class="cls-3" cx="173.45" cy="43.85" r="2.65"/><circle class="cls-3" cx="74.45" cy="177.62" r="2.65"/><circle class="cls-3" cx="70.29" cy="117.16" r="2.65"/><circle class="cls-3" cx="215.4" cy="20.04" r="2.65"/><circle class="cls-3" cx="224.09" cy="43.85" r="2.65"/><rect class="cls-20" x="219.17" y="66.92" width="23.67" height="30.6" rx="11.83"/><path class="cls-27" d="M236.12,77.45c.25,4.8-.13,14.28-1.79,18.75s-4.73,8.46-8.84,10.45c3.65.65,6.92-2.14,10.17-4,2.27-1.31,6.14,0,8.62-.75a26.73,26.73,0,0,0,6.16-2.41c3.52-2.19,4.32-8.58,5-12.85a29.36,29.36,0,0,0-1.12-12.85,23.33,23.33,0,0,0-1.59-4.25c-3.66-7.12-12-9.74-18.73-5.85-.33.19-.66.4-1,.62a44.35,44.35,0,0,0-8.81,8.87"/><path class="cls-27" d="M232.19,77.81s3.24,1,4.69-.36L241.33,62a21.81,21.81,0,0,0-15.8-.1s-4.83,4.5-6,7.31c0,0-3.16,6.92-2.26,8.1,0,0,2.9,1.09,3.81.63,0,0-.4-2.41.82-2.72,0,0-.27,3,0,2.84A29,29,0,0,0,228,78s.55-2.39.73-3.75l.18-1.36V78.2H231"/><rect class="cls-10" x="153.03" y="67.14" width="26.86" height="32.02" rx="13.43"/><path class="cls-6" d="M153.8,88.75a.9.9,0,0,1,.14-.56,1.19,1.19,0,0,1,.54-.34,2.87,2.87,0,0,0,1.6-3.07l1.32-.27,0-4.61c2-1.09,4.65-.26,6.49-1.54a8.75,8.75,0,0,0,2.21-3.06c.64-1.09,1.58-2.2,2.84-2.29a8.06,8.06,0,0,0,.44,6.85,7.78,7.78,0,0,0,3.18-3l.66,3.78a.89.89,0,0,0,.28.61c.34.25.81-.06,1.11-.38l1.71-1.68a23.36,23.36,0,0,1,1.47,5.63A11.1,11.1,0,0,0,180.44,74a15.27,15.27,0,0,0-7.32-8.8,24.76,24.76,0,0,0-11.28-2.88,16.11,16.11,0,0,0-3.92.26,18.08,18.08,0,0,0-4,1.51,16.75,16.75,0,0,0-5.38,3.51c-2.54,2.77-3.11,6.83-2.83,10.58a47.76,47.76,0,0,0,3.83,14.22,17.11,17.11,0,0,0,2.29,4.33c1.53,1.94,5.29.33,4.81-3.5C156.3,90.46,153.8,91.52,153.8,88.75Z"/></g></g></svg>